<?xml version="1.0" standalone="no"?>
<!DOCTYPE svg PUBLIC "-//W3C//DTD SVG 1.1//EN" "http://www.w3.org/Graphics/SVG/1.1/DTD/svg11.dtd" >
<svg xmlns="http://www.w3.org/2000/svg" xmlns:xlink="http://www.w3.org/1999/xlink" version="1.1">
<metadata>
Created by FontForge 20201107 at Wed Apr 15 17:18:08 2020
 By 
Copyright (c) 2020 by Steve Gigou. All rights reserved.
</metadata>
<defs>
<font id="NFPixels-Regular" horiz-adv-x="600" >
  <font-face 
    font-family="NF Pixels"
    font-weight="400"
    font-stretch="normal"
    units-per-em="1000"
    panose-1="0 0 5 0 0 0 0 0 0 0"
    ascent="800"
    descent="-200"
    x-height="500"
    cap-height="700"
    bbox="-600 -200 1100 1000"
    underline-thickness="50"
    underline-position="-100"
    unicode-range="U+0020-2260"
  />
<missing-glyph horiz-adv-x="500" 
d="M410 800v-1000h-317v1000h317zM333 733h-165v-33h65v-37h-66v-33h166v33h-66v37h66v33zM267 604h-100v-104h166v34h-66v70zM233 570v-36h-33v36h33zM333 473h-166v-33h66v-37h-66v-33h100v70h66v33zM333 413h-33v-66h-133v-34h166v100zM333 291h-100v-56h34v23h33v-47
h-100v80h-33v-113h166v113zM333 118h-166v-113h166v113zM300 85v-47h-100v47h100zM333 -18h-166v-33h70l-70 -47v-33h166v33h-102l70 47h32v33z" />
    <glyph glyph-name="f_i.liga" unicode="fi" horiz-adv-x="400" 
d="M300 600h-200v100h200v-100zM0 600h100v-100h200v-500h-100v400h-100v-400h-100v600z" />
    <glyph glyph-name=".notdef" horiz-adv-x="500" 
d="M410 800v-1000h-317v1000h317zM333 733h-165v-33h65v-37h-66v-33h166v33h-66v37h66v33zM267 604h-100v-104h166v34h-66v70zM233 570v-36h-33v36h33zM333 473h-166v-33h66v-37h-66v-33h100v70h66v33zM333 413h-33v-66h-133v-34h166v100zM333 291h-100v-56h34v23h33v-47
h-100v80h-33v-113h166v113zM333 118h-166v-113h166v113zM300 85v-47h-100v47h100zM333 -18h-166v-33h70l-70 -47v-33h166v33h-102l70 47h32v33z" />
    <glyph glyph-name=".null" horiz-adv-x="0" 
 />
    <glyph glyph-name="nonmarkingreturn" horiz-adv-x="333" 
 />
    <glyph glyph-name="space" unicode=" " horiz-adv-x="300" 
 />
    <glyph glyph-name="exclam" unicode="!" horiz-adv-x="200" 
d="M0 700h100v-500h-100v500zM0 100h100v-100h-100v100z" />
    <glyph glyph-name="quotedbl" unicode="&#x22;" horiz-adv-x="400" 
d="M0 700h100v-200h-100v200zM200 700h100v-200h-100v200z" />
    <glyph glyph-name="numbersign" unicode="#" 
d="M500 400h-100v-100h100v-100h-100v-200h-100v200h-100v-200h-100v200h-100v100h100v100h-100v100h100v200h100v-200h100v200h100v-200h100v-100zM300 300v100h-100v-100h100z" />
    <glyph glyph-name="dollar" unicode="$" 
d="M300 700h100v-100h-100v-200h100v-100h-100v-200h100v-100h-100v-100h-100v100h-100v100h100v200h-100v100h100v200h-100v100h100v100h100v-100zM0 600h100v-200h-100v200zM500 500h-100v100h100v-100zM500 100h-100v200h100v-200zM0 200h100v-100h-100v100z" />
    <glyph glyph-name="percent" unicode="%" horiz-adv-x="800" 
d="M100 700h100v-100h-100v100zM600 700h100v-100h-100v100zM0 600h100v-100h-100v100zM200 600h100v-100h-100v100zM500 600h100v-100h-100v100zM100 500h100v-100h-100v100zM400 500h100v-100h-100v100zM300 400h100v-100h-100v100zM200 300h100v-100h-100v100zM500 300
h100v-100h-100v100zM100 200h100v-100h-100v100zM400 200h100v-100h-100v100zM600 200h100v-100h-100v100zM0 100h100v-100h-100v100zM500 100h100v-100h-100v100z" />
    <glyph glyph-name="ampersand" unicode="&#x26;" 
d="M300 700v-100h-200v100h200zM0 600h100v-200h-100v200zM400 400h-100v200h100v-200zM300 400v-100h-200v100h200zM0 300h100v-200h-100v200zM500 200h-100v-100h-100v200h200v-100zM100 0v100h200v-100h-200zM500 0h-100v100h100v-100z" />
    <glyph glyph-name="quotesingle" unicode="'" horiz-adv-x="200" 
d="M0 700h100v-200h-100v200z" />
    <glyph glyph-name="parenleft" unicode="(" horiz-adv-x="300" 
d="M100 700h100v-100h-100v100zM0 600h100v-700h-100v700zM100 -100h100v-100h-100v100z" />
    <glyph glyph-name="parenright" unicode=")" horiz-adv-x="300" 
d="M0 700h100v-100h-100v100zM100 600h100v-700h-100v700zM0 -100h100v-100h-100v100z" />
    <glyph glyph-name="asterisk" unicode="*" horiz-adv-x="400" 
d="M300 600v-100h-100v-100h-100v100h-100v100h100v100h100v-100h100z" />
    <glyph glyph-name="plus" unicode="+" 
d="M500 300v-100h-200v-200h-100v200h-200v100h200v200h100v-200h200z" />
    <glyph glyph-name="comma" unicode="," horiz-adv-x="200" 
d="M0 100h100v-200h-100v200z" />
    <glyph glyph-name="hyphen" unicode="-" horiz-adv-x="400" 
d="M0 300h300v-100h-300v100z" />
    <glyph glyph-name="period" unicode="." horiz-adv-x="200" 
d="M0 100h100v-100h-100v100z" />
    <glyph glyph-name="slash" unicode="/" horiz-adv-x="500" 
d="M300 700h100v-200h-100v200zM200 500h100v-200h-100v200zM100 300h100v-200h-100v200zM0 100h100v-200h-100v200z" />
    <glyph glyph-name="zero" unicode="0" horiz-adv-x="500" 
d="M100 700h200v-100h-200v100zM0 600h100v-500h-100v500zM300 600h100v-500h-100v500zM100 100h200v-100h-200v100z" />
    <glyph glyph-name="one" unicode="1" horiz-adv-x="300" 
d="M100 700h100v-700h-100v500h-100v100h100v100z" />
    <glyph glyph-name="two" unicode="2" horiz-adv-x="500" 
d="M100 700h200v-100h-200v100zM0 500v100h100v-100h-100zM400 600v-200h-100v200h100zM300 400v-100h-100v100h100zM200 300v-100h-100v100h100zM0 200h100v-100h300v-100h-400v200z" />
    <glyph glyph-name="three" unicode="3" horiz-adv-x="500" 
d="M100 700h200v-100h-200v100zM0 600h100v-100h-100v100zM300 600h100v-200h-100v200zM200 400h100v-100h-100v100zM300 300h100v-200h-100v200zM0 200h100v-100h-100v100zM100 100h200v-100h-200v100z" />
    <glyph glyph-name="four" unicode="4" horiz-adv-x="500" 
d="M0 700h100v-300h-100v300zM300 700h100v-700h-100v300h-200v100h200v300z" />
    <glyph glyph-name="five" unicode="5" horiz-adv-x="500" 
d="M400 600h-300v-200h200v-100h-300v400h400v-100zM400 100h-100v200h100v-200zM0 200h100v-100h-100v100zM100 0v100h200v-100h-200z" />
    <glyph glyph-name="six" unicode="6" horiz-adv-x="500" 
d="M100 700h200v-100h-200v100zM0 100v500h100v-200h200v-100h-200v-200h-100zM400 500h-100v100h100v-100zM400 100h-100v200h100v-200zM100 0v100h200v-100h-200z" />
    <glyph glyph-name="seven" unicode="7" horiz-adv-x="500" 
d="M0 700h400v-200h-100v100h-300v100zM200 300v200h100v-200h-100zM100 0v300h100v-300h-100z" />
    <glyph glyph-name="eight" unicode="8" horiz-adv-x="500" 
d="M100 700h200v-100h-200v100zM0 600h100v-200h-100v200zM300 600h100v-200h-100v200zM100 400h200v-100h-200v100zM0 300h100v-200h-100v200zM300 300h100v-200h-100v200zM100 100h200v-100h-200v100z" />
    <glyph glyph-name="nine" unicode="9" horiz-adv-x="500" 
d="M300 700v-100h-200v100h200zM0 600h100v-200h-100v200zM300 600h100v-500h-100v200h-200v100h200v200zM0 200h100v-100h-100v100zM100 0v100h200v-100h-200z" />
    <glyph glyph-name="colon" unicode=":" horiz-adv-x="200" 
d="M0 500h100v-100h-100v100zM0 100h100v-100h-100v100z" />
    <glyph glyph-name="semicolon" unicode=";" horiz-adv-x="200" 
d="M0 500h100v-100h-100v100zM0 100h100v-200h-100v200z" />
    <glyph glyph-name="less" unicode="&#x3c;" horiz-adv-x="400" 
d="M200 500h100v-100h-100v100zM100 400h100v-100h-100v100zM0 300h100v-100h-100v100zM100 200h100v-100h-100v100zM200 100h100v-100h-100v100z" />
    <glyph glyph-name="equal" unicode="=" 
d="M0 400h500v-100h-500v100zM0 200h500v-100h-500v100z" />
    <glyph glyph-name="greater" unicode="&#x3e;" horiz-adv-x="400" 
d="M100 500v-100h-100v100h100zM200 400v-100h-100v100h100zM300 300v-100h-100v100h100zM200 200v-100h-100v100h100zM100 100v-100h-100v100h100z" />
    <glyph glyph-name="question" unicode="?" 
d="M100 700h300v-100h-300v100zM0 600h100v-100h-100v100zM400 600h100v-200h-100v200zM300 400h100v-100h-100v100zM300 300h-100v-100h100v100zM200 100h100v-100h-100v100z" />
    <glyph glyph-name="at" unicode="@" horiz-adv-x="800" 
d="M200 700h300v-100h-300v100zM100 500v100h100v-100h-100zM500 600h100v-100h-100v100zM0 100v400h100v-400h-100zM400 500v-100h-100v100h100zM600 500h100v-300h-100v300zM200 400h100v-200h-100v200zM500 400v-200h100v-100h-300v100h100v200h100zM200 0h-100v100h100
v-100zM500 -100h-300v100h300v-100z" />
    <glyph glyph-name="A" unicode="A" 
d="M300 700v-100h-100v100h100zM200 600v-100h-100v100h100zM400 500h-100v100h100v-100zM400 500h100v-500h-100v200h-300v-200h-100v500h100v-200h300v200z" />
    <glyph glyph-name="B" unicode="B" 
d="M100 400h300v-100h-300v-200h300v-100h-400v700h400v-100h-300v-200zM500 400h-100v200h100v-200zM500 100h-100v200h100v-200z" />
    <glyph glyph-name="C" unicode="C" 
d="M100 700h300v-100h-300v100zM0 600h100v-500h-100v500zM400 600h100v-100h-100v100zM400 200h100v-100h-100v100zM100 100h300v-100h-300v100z" />
    <glyph glyph-name="D" unicode="D" 
d="M100 600v-500h300v-100h-400v700h400v-100h-300zM400 600h100v-500h-100v500z" />
    <glyph glyph-name="E" unicode="E" horiz-adv-x="500" 
d="M400 600h-300v-200h200v-100h-200v-200h300v-100h-400v700h400v-100z" />
    <glyph glyph-name="F" unicode="F" horiz-adv-x="500" 
d="M400 600h-300v-200h200v-100h-200v-300h-100v700h400v-100z" />
    <glyph glyph-name="G" unicode="G" 
d="M100 700h300v-100h-300v100zM0 100v500h100v-500h-100zM500 500h-100v100h100v-100zM500 300v-200h-100v100h-100v100h200zM400 0h-300v100h300v-100z" />
    <glyph glyph-name="H" unicode="H" 
d="M400 700h100v-700h-100v300h-300v-300h-100v700h100v-300h300v300z" />
    <glyph glyph-name="I" unicode="I" horiz-adv-x="200" 
d="M0 700h100v-700h-100v700z" />
    <glyph glyph-name="J" unicode="J" 
d="M400 700h100v-600h-100v600zM0 200h100v-100h-100v100zM100 100h300v-100h-300v100z" />
    <glyph glyph-name="K" unicode="K" 
d="M100 400h100v-100h-100v-300h-100v700h100v-300zM500 700v-100h-100v100h100zM400 600v-100h-100v100h100zM300 500v-100h-100v100h100zM300 200h-100v100h100v-100zM400 100h-100v100h100v-100zM500 0h-100v100h100v-100z" />
    <glyph glyph-name="L" unicode="L" horiz-adv-x="500" 
d="M100 100h300v-100h-400v700h100v-600z" />
    <glyph glyph-name="M" unicode="M" 
d="M100 600h100v-100h-100v-500h-100v700h100v-100zM400 700h100v-700h-100v500h-100v100h100v100zM200 400v100h100v-100h-100z" />
    <glyph glyph-name="N" unicode="N" 
d="M100 600h100v-100h-100v-500h-100v700h100v-100zM400 700h100v-700h-100v300h-100v100h100v300zM200 500h100v-100h-100v100z" />
    <glyph glyph-name="O" unicode="O" 
d="M100 700h300v-100h-300v100zM0 600h100v-500h-100v500zM400 600h100v-500h-100v500zM100 100h300v-100h-300v100z" />
    <glyph glyph-name="P" unicode="P" 
d="M100 600v-300h300v-100h-300v-200h-100v700h400v-100h-300zM400 600h100v-300h-100v300z" />
    <glyph glyph-name="Q" unicode="Q" 
d="M400 700v-100h-300v100h300zM0 600h100v-500h-100v500zM500 100h-100v500h100v-500zM100 100h300v-100h100v-100h-200v100h-200v100z" />
    <glyph glyph-name="R" unicode="R" 
d="M100 400h300v-100h-300v-300h-100v700h400v-100h-300v-200zM500 400h-100v200h100v-200zM500 0h-100v300h100v-300z" />
    <glyph glyph-name="S" unicode="S" 
d="M100 700h300v-100h-300v100zM0 600h100v-200h-100v200zM400 600h100v-100h-100v100zM100 400h300v-100h-300v100zM400 300h100v-200h-100v200zM0 200h100v-100h-100v100zM100 100h300v-100h-300v100z" />
    <glyph glyph-name="T" unicode="T" 
d="M0 700h500v-100h-200v-600h-100v600h-200v100z" />
    <glyph glyph-name="U" unicode="U" 
d="M0 700h100v-600h-100v600zM400 700h100v-600h-100v600zM100 100h300v-100h-300v100z" />
    <glyph glyph-name="V" unicode="V" 
d="M0 700h100v-300h-100v300zM400 700h100v-300h-100v300zM100 400h100v-300h-100v300zM300 400h100v-300h-100v300zM200 100h100v-100h-100v100z" />
    <glyph glyph-name="W" unicode="W" horiz-adv-x="800" 
d="M0 700h100v-300h-100v300zM600 700h100v-300h-100v300zM100 400h100v-300h-100v300zM500 400h100v-300h-100v300zM300 300h100v-200h-100v200zM200 100h100v-100h-100v100zM400 100h100v-100h-100v100z" />
    <glyph glyph-name="X" unicode="X" 
d="M0 700h100v-200h-100v200zM400 700h100v-200h-100v200zM100 500h100v-100h-100v100zM300 500h100v-100h-100v100zM200 400h100v-100h-100v100zM100 300h100v-100h-100v100zM300 300h100v-100h-100v100zM0 200h100v-200h-100v200zM400 200h100v-200h-100v200z" />
    <glyph glyph-name="Y" unicode="Y" 
d="M0 700h100v-200h-100v200zM400 700h100v-200h-100v200zM100 500h100v-100h-100v100zM300 500h100v-100h-100v100zM200 400h100v-400h-100v400z" />
    <glyph glyph-name="Z" unicode="Z" 
d="M0 700h500v-200h-100v100h-400v100zM300 400v100h100v-100h-100zM200 300v100h100v-100h-100zM100 200v100h100v-100h-100zM0 0v200h100v-100h400v-100h-500z" />
    <glyph glyph-name="bracketleft" unicode="[" horiz-adv-x="300" 
d="M200 600h-100v-700h100v-100h-200v900h200v-100z" />
    <glyph glyph-name="backslash" unicode="\" horiz-adv-x="500" 
d="M0 700h100v-200h-100v200zM100 500h100v-200h-100v200zM200 300h100v-200h-100v200zM300 100h100v-200h-100v200z" />
    <glyph glyph-name="bracketright" unicode="]" horiz-adv-x="300" 
d="M0 700h200v-900h-200v100h100v700h-100v100z" />
    <glyph glyph-name="asciicircum" unicode="^" horiz-adv-x="400" 
d="M100 700h100v-100h-100v100zM0 600h100v-100h-100v100zM200 600h100v-100h-100v100z" />
    <glyph glyph-name="underscore" unicode="_" horiz-adv-x="500" 
d="M0 -100h400v-100h-400v100z" />
    <glyph glyph-name="grave" unicode="`" 
d="M0 800h100v-100h-100v100zM100 700h100v-100h-100v100z" />
    <glyph glyph-name="a" unicode="a" horiz-adv-x="500" 
d="M100 500h200v-100h-200v100zM300 400h100v-400h-300v100h200v100h-200v100h200v100zM0 200h100v-100h-100v100z" />
    <glyph glyph-name="b" unicode="b" horiz-adv-x="500" 
d="M300 400h-200v-300h-100v600h100v-200h200v-100zM300 400h100v-300h-100v300zM100 0v100h200v-100h-200z" />
    <glyph glyph-name="c" unicode="c" horiz-adv-x="400" 
d="M100 500h200v-100h-200v100zM0 400h100v-300h-100v300zM100 100h200v-100h-200v100z" />
    <glyph glyph-name="d" unicode="d" horiz-adv-x="500" 
d="M300 700h100v-700h-300v100h200v300h-200v100h200v200zM0 400h100v-300h-100v300z" />
    <glyph glyph-name="e" unicode="e" horiz-adv-x="500" 
d="M300 500v-100h-200v100h200zM300 400h100v-200h-300v-100h-100v300h100v-100h200v100zM300 0h-200v100h200v-100z" />
    <glyph glyph-name="f" unicode="f" horiz-adv-x="400" 
d="M300 700v-100h-200v100h200zM0 600h100v-100h100v-100h-100v-400h-100v600z" />
    <glyph glyph-name="g" unicode="g" horiz-adv-x="500" 
d="M100 500h300v-600h-100v100h-200v100h200v300h-200v100zM0 400h100v-300h-100v300zM100 -200v100h200v-100h-200z" />
    <glyph glyph-name="h" unicode="h" horiz-adv-x="500" 
d="M100 500h200v-100h-200v-400h-100v700h100v-200zM300 400h100v-400h-100v400z" />
    <glyph glyph-name="i" unicode="i" horiz-adv-x="200" 
d="M0 700h100v-100h-100v100zM0 500h100v-500h-100v500z" />
    <glyph glyph-name="j" unicode="j" horiz-adv-x="300" 
d="M100 700h100v-100h-100v100zM100 500h100v-600h-100v600zM0 -100h100v-100h-100v100z" />
    <glyph glyph-name="k" unicode="k" horiz-adv-x="500" 
d="M100 300h100v-100h-100v-200h-100v700h100v-400zM400 500v-100h-100v100h100zM300 400v-100h-100v100h100zM300 100h-100v100h100v-100zM400 0h-100v100h100v-100z" />
    <glyph glyph-name="l" unicode="l" horiz-adv-x="300" 
d="M0 700h100v-600h-100v600zM100 100h100v-100h-100v100z" />
    <glyph glyph-name="m" unicode="m" horiz-adv-x="800" 
d="M300 500v-100h-200v-400h-100v500h300zM400 500h200v-100h-200v100zM300 0v400h100v-400h-100zM600 400h100v-400h-100v400z" />
    <glyph glyph-name="n" unicode="n" horiz-adv-x="500" 
d="M300 500v-100h-200v-400h-100v500h300zM300 400h100v-400h-100v400z" />
    <glyph glyph-name="o" unicode="o" horiz-adv-x="500" 
d="M100 500h200v-100h-200v100zM0 400h100v-300h-100v300zM300 400h100v-300h-100v300zM100 100h200v-100h-200v100z" />
    <glyph glyph-name="p" unicode="p" horiz-adv-x="500" 
d="M100 400v-300h200v-100h-200v-200h-100v700h300v-100h-200zM300 400h100v-300h-100v300z" />
    <glyph glyph-name="q" unicode="q" horiz-adv-x="500" 
d="M100 500h300v-700h-100v200h-200v100h200v300h-200v100zM0 400h100v-300h-100v300z" />
    <glyph glyph-name="r" unicode="r" horiz-adv-x="400" 
d="M100 500v-100h100v-100h-100v-300h-100v500h100zM200 500h100v-100h-100v100z" />
    <glyph glyph-name="s" unicode="s" horiz-adv-x="500" 
d="M100 500h200v-100h-200v100zM0 400h100v-100h-100v100zM100 300h200v-100h-200v100zM300 200h100v-100h-100v100zM100 100h200v-100h-200v100z" />
    <glyph glyph-name="t" unicode="t" horiz-adv-x="400" 
d="M300 400h-200v-300h-100v600h100v-200h200v-100zM300 0h-200v100h200v-100z" />
    <glyph glyph-name="u" unicode="u" horiz-adv-x="500" 
d="M0 500h100v-400h-100v400zM300 500h100v-500h-300v100h200v400z" />
    <glyph glyph-name="v" unicode="v" 
d="M0 500h100v-200h-100v200zM400 500h100v-200h-100v200zM100 300h100v-200h-100v200zM300 300h100v-200h-100v200zM200 100h100v-100h-100v100z" />
    <glyph glyph-name="w" unicode="w" 
d="M100 500v-400h-100v400h100zM400 500h100v-400h-100v400zM200 200h100v-100h-100v100zM100 0v100h100v-100h-100zM300 0v100h100v-100h-100z" />
    <glyph glyph-name="x" unicode="x" 
d="M0 500h100v-100h-100v100zM400 500h100v-100h-100v100zM100 400h100v-100h-100v100zM300 400h100v-100h-100v100zM200 300h100v-100h-100v100zM100 200h100v-100h-100v100zM300 200h100v-100h-100v100zM0 100h100v-100h-100v100zM400 100h100v-100h-100v100z" />
    <glyph glyph-name="y" unicode="y" horiz-adv-x="500" 
d="M0 500h100v-400h-100v400zM300 500h100v-600h-100v100h-200v100h200v400zM100 -200v100h200v-100h-200z" />
    <glyph glyph-name="z" unicode="z" horiz-adv-x="400" 
d="M0 500h300v-200h-100v100h-200v100zM100 200v100h100v-100h-100zM0 200h100v-100h200v-100h-300v200z" />
    <glyph glyph-name="braceleft" unicode="{" horiz-adv-x="400" 
d="M200 700h100v-100h-100v100zM100 600h100v-300h-100v300zM0 300h100v-100h-100v100zM100 200h100v-300h-100v300zM200 -100h100v-100h-100v100z" />
    <glyph glyph-name="bar" unicode="|" horiz-adv-x="200" 
d="M0 700h100v-900h-100v900z" />
    <glyph glyph-name="braceright" unicode="}" horiz-adv-x="400" 
d="M0 700h100v-100h-100v100zM100 600h100v-300h-100v300zM200 300h100v-100h-100v100zM100 200h100v-300h-100v300zM0 -100h100v-100h-100v100z" />
    <glyph glyph-name="exclamdown" unicode="&#xa1;" horiz-adv-x="200" 
d="M100 400h-100v100h100v-100zM100 -200h-100v500h100v-500z" />
    <glyph glyph-name="cent" unicode="&#xa2;" 
d="M300 700h100v-100h-100v-500h100v-100h-100v-100h-100v100h-100v100h100v500h-100v100h100v100h100v-100zM0 600h100v-500h-100v500zM500 500h-100v100h100v-100zM500 200v-100h-100v100h100z" />
    <glyph glyph-name="sterling" unicode="&#xa3;" 
d="M200 700h200v-100h-200v100zM100 400v200h100v-200h200v-100h-200v-200h300v-100h-500v100h100v200h-100v100h100zM500 500h-100v100h100v-100z" />
    <glyph glyph-name="yen" unicode="&#xa5;" 
d="M0 700h100v-100h-100v100zM400 700h100v-100h-100v100zM100 600h100v-100h-100v100zM300 500v100h100v-100h-100zM200 400v100h100v-100h100v-100h-100v-100h100v-100h-100v-100h-100v100h-100v100h100v100h-100v100h100z" />
    <glyph glyph-name="section" unicode="&#xa7;" 
d="M100 800h200v-100h-200v100zM0 700h100v-200h-100v200zM300 700h100v-100h-100v100zM100 500h200v-100h-200v100zM0 400h100v-200h-100v200zM300 400h100v-200h-100v200zM100 200h200v-100h-200v100zM300 100h100v-200h-100v200zM0 0h100v-100h-100v100zM100 -100h200
v-100h-200v100z" />
    <glyph glyph-name="dieresis" unicode="&#xa8;" 
d="M0 700h100v-100h-100v100zM300 700h100v-100h-100v100z" />
    <glyph glyph-name="copyright" unicode="&#xa9;" horiz-adv-x="700" 
d="M100 600h400v-100h-400v100zM0 500h100v-500h-100v500zM500 500h100v-500h-100v500zM400 300h-100v-100h100v-100h-200v300h200v-100zM100 0h400v-100h-400v100z" />
    <glyph glyph-name="guillemotleft" unicode="&#xab;" horiz-adv-x="700" 
d="M200 500h100v-100h-100v100zM500 500h100v-100h-100v100zM100 400h100v-100h-100v100zM400 400h100v-100h-100v100zM0 300h100v-100h-100v100zM300 300h100v-100h-100v100zM100 200h100v-100h-100v100zM400 200h100v-100h-100v100zM200 100h100v-100h-100v100zM500 100
h100v-100h-100v100z" />
    <glyph glyph-name="registered" unicode="&#xae;" horiz-adv-x="700" 
d="M100 800h400v-100h-400v100zM0 700h100v-400h-100v400zM500 700h100v-400h-100v400zM200 400h100v100h100v100h-200v-200zM100 300h400v-100h-400v100z" />
    <glyph glyph-name="degree" unicode="&#xb0;" horiz-adv-x="400" 
d="M100 700h100v-100h-100v100zM0 600h100v-100h-100v100zM200 600h100v-100h-100v100zM100 500h100v-100h-100v100z" />
    <glyph glyph-name="plusminus" unicode="&#xb1;" horiz-adv-x="400" 
d="M200 400h100v-100h-100v-100h-100v100h-100v100h100v100h100v-100zM0 0v100h300v-100h-300z" />
    <glyph glyph-name="uni00B2" unicode="&#xb2;" horiz-adv-x="500" 
d="M100 700h200v-100h-200v100zM0 500v100h100v-100h-100zM400 600v-200h-100v200h100zM300 400v-100h-100v100h100zM200 300v-100h-100v100h100zM0 200h100v-100h300v-100h-400v200z" />
    <glyph glyph-name="uni00B3" unicode="&#xb3;" horiz-adv-x="500" 
d="M100 700h200v-100h-200v100zM0 600h100v-100h-100v100zM300 600h100v-200h-100v200zM200 400h100v-100h-100v100zM300 300h100v-200h-100v200zM0 200h100v-100h-100v100zM100 100h200v-100h-200v100z" />
    <glyph glyph-name="acute" unicode="&#xb4;" 
d="M100 800h100v-100h-100v100zM0 700h100v-100h-100v100z" />
    <glyph glyph-name="periodcentered" unicode="&#xb7;" horiz-adv-x="200" 
d="M0 300h100v-100h-100v100z" />
    <glyph glyph-name="cedilla" unicode="&#xb8;" 
d="M100 0h100v-200h-200v100h100v100z" />
    <glyph glyph-name="uni00B9" unicode="&#xb9;" horiz-adv-x="300" 
d="M100 700h100v-700h-100v500h-100v100h100v100z" />
    <glyph glyph-name="ordmasculine" unicode="&#xba;" horiz-adv-x="400" 
d="M100 700h100v-100h-100v100zM0 600h100v-100h-100v100zM200 600h100v-100h-100v100zM100 500h100v-100h-100v100z" />
    <glyph glyph-name="guillemotright" unicode="&#xbb;" horiz-adv-x="700" 
d="M100 500v-100h-100v100h100zM400 500v-100h-100v100h100zM200 400v-100h-100v100h100zM500 400v-100h-100v100h100zM300 300v-100h-100v100h100zM600 300v-100h-100v100h100zM200 200v-100h-100v100h100zM500 200v-100h-100v100h100zM100 100v-100h-100v100h100zM400 100
v-100h-100v100h100z" />
    <glyph glyph-name="questiondown" unicode="&#xbf;" 
d="M300 400h-100v100h100v-100zM200 200h100v100h-100v-100zM200 100h-100v100h100v-100zM100 -100h-100v200h100v-200zM500 -100h-100v100h100v-100zM400 -200h-300v100h300v-100z" />
    <glyph glyph-name="Agrave" unicode="&#xc0;" 
d="M300 700v-100h-100v100h100zM200 600v-100h-100v100h100zM400 500h-100v100h100v-100zM400 500h100v-500h-100v200h-300v-200h-100v500h100v-200h300v200zM200 1000h100v-100h-100v100zM300 900h100v-100h-100v100z" />
    <glyph glyph-name="Aacute" unicode="&#xc1;" 
d="M400 800v-100h-100v100h100zM300 700v-100h-100v100h100zM200 600v-100h-100v100h100zM400 500h-100v100h100v-100zM400 500h100v-500h-100v200h-300v-200h-100v500h100v-200h300v200z" />
    <glyph glyph-name="Acircumflex" unicode="&#xc2;" 
d="M300 1000v-100h-100v100h100zM200 900v-100h-100v100h100zM400 800h-100v100h100v-100zM300 700v-100h-100v100h100zM200 600v-100h-100v100h100zM400 500h-100v100h100v-100zM400 500h100v-500h-100v200h-300v-200h-100v500h100v-200h300v200z" />
    <glyph glyph-name="Atilde" unicode="&#xc3;" 
d="M300 700v-100h-100v100h100zM200 600v-100h-100v100h100zM400 500h-100v100h100v-100zM400 500h100v-500h-100v200h-300v-200h-100v500h100v-200h300v200zM200 900h100v-100h-100v100zM400 900h100v-100h-100v100zM100 800h100v-100h-100v100zM300 800h100v-100h-100v100
z" />
    <glyph glyph-name="Adieresis" unicode="&#xc4;" 
d="M200 900v-100h-100v100h100zM400 900v-100h-100v100h100zM300 700v-100h-100v100h100zM200 600v-100h-100v100h100zM400 500h-100v100h100v-100zM400 500h100v-500h-100v200h-300v-200h-100v500h100v-200h300v200z" />
    <glyph glyph-name="Aring" unicode="&#xc5;" 
d="M300 900v-100h-100v100h100zM100 800h100v-100h-100v100zM400 700h-100v100h100v-100zM300 700v-100h-100v100h100zM200 600v-100h-100v100h100zM400 500h-100v100h100v-100zM400 500h100v-500h-100v200h-300v-200h-100v500h100v-200h300v200z" />
    <glyph glyph-name="AE" unicode="&#xc6;" 
d="M700 600h-300v-200h200v-100h-200v-200h300v-100h-400v200h-200v-200h-100v500h100v-200h200v300h-100v100h500v-100zM200 600v-100h-100v100h100z" />
    <glyph glyph-name="Ccedilla" unicode="&#xc7;" 
d="M100 700h300v-100h-300v100zM0 600h100v-500h-100v500zM400 600h100v-100h-100v100zM400 200h100v-100h-100v100zM100 100h300v-100h-300v100zM200 0h100v-200h-200v100h100v100z" />
    <glyph glyph-name="Egrave" unicode="&#xc8;" horiz-adv-x="500" 
d="M400 600h-300v-200h200v-100h-200v-200h300v-100h-400v700h400v-100zM100 1000h100v-100h-100v100zM200 900h100v-100h-100v100z" />
    <glyph glyph-name="Eacute" unicode="&#xc9;" horiz-adv-x="500" 
d="M400 600h-300v-200h200v-100h-200v-200h300v-100h-400v700h400v-100zM200 1000h100v-100h-100v100zM100 900h100v-100h-100v100z" />
    <glyph glyph-name="Ecircumflex" unicode="&#xca;" horiz-adv-x="500" 
d="M400 600h-300v-200h200v-100h-200v-200h300v-100h-400v700h400v-100zM100 1000h200v-100h-200v100zM0 900h100v-100h-100v100zM300 900h100v-100h-100v100z" />
    <glyph glyph-name="Edieresis" unicode="&#xcb;" horiz-adv-x="500" 
d="M100 900v-100h-100v100h100zM300 900h100v-100h-100v100zM0 700h400v-100h-300v-200h200v-100h-200v-200h300v-100h-400v700z" />
    <glyph glyph-name="Igrave" unicode="&#xcc;" horiz-adv-x="200" 
d="M-100 800h100v-100h-100v100zM0 700h100v-700h-100v700z" />
    <glyph glyph-name="Iacute" unicode="&#xcd;" horiz-adv-x="200" 
d="M100 800h100v-100h-100v100zM0 700h100v-700h-100v700z" />
    <glyph glyph-name="Icircumflex" unicode="&#xce;" horiz-adv-x="400" 
d="M100 1000h100v-100h-100v100zM0 900h100v-100h-100v100zM200 900h100v-100h-100v100zM100 700h100v-700h-100v700z" />
    <glyph glyph-name="Idieresis" unicode="&#xcf;" horiz-adv-x="200" 
d="M-100 900h100v-100h-100v100zM100 900h100v-100h-100v100zM0 700h100v-700h-100v700z" />
    <glyph glyph-name="Ntilde" unicode="&#xd1;" 
d="M100 600h100v-100h-100v-500h-100v700h100v-100zM400 700h100v-700h-100v300h-100v100h100v300zM200 500h100v-100h-100v100zM200 900h100v-100h-100v100zM400 900h100v-100h-100v100zM100 800h100v-100h-100v100zM300 800h100v-100h-100v100z" />
    <glyph glyph-name="Ograve" unicode="&#xd2;" 
d="M100 700h300v-100h-300v100zM0 600h100v-500h-100v500zM400 600h100v-500h-100v500zM100 100h300v-100h-300v100zM100 900h100v-100h-100v100zM200 800h100v-100h-100v100z" />
    <glyph glyph-name="Oacute" unicode="&#xd3;" 
d="M100 700h300v-100h-300v100zM0 600h100v-500h-100v500zM400 600h100v-500h-100v500zM100 100h300v-100h-300v100zM300 900h100v-100h-100v100zM200 800h100v-100h-100v100z" />
    <glyph glyph-name="Ocircumflex" unicode="&#xd4;" 
d="M200 1000h100v-100h-100v100zM100 900h100v-100h-100v100zM300 900h100v-100h-100v100zM100 700h300v-100h-300v100zM0 600h100v-500h-100v500zM400 600h100v-500h-100v500zM100 100h300v-100h-300v100z" />
    <glyph glyph-name="Otilde" unicode="&#xd5;" 
d="M100 700h300v-100h-300v100zM0 600h100v-500h-100v500zM400 600h100v-500h-100v500zM100 100h300v-100h-300v100zM200 900h100v-100h-100v100zM400 900h100v-100h-100v100zM100 800h100v-100h-100v100zM300 800h100v-100h-100v100z" />
    <glyph glyph-name="Odieresis" unicode="&#xd6;" 
d="M100 900h100v-100h-100v100zM300 900h100v-100h-100v100zM100 700h300v-100h-300v100zM0 600h100v-500h-100v500zM400 600h100v-500h-100v500zM100 100h300v-100h-300v100z" />
    <glyph glyph-name="multiply" unicode="&#xd7;" 
d="M0 500h100v-100h-100v100zM400 500h100v-100h-100v100zM100 400h100v-100h-100v100zM300 400h100v-100h-100v100zM200 300h100v-100h-100v100zM100 200h100v-100h-100v100zM300 200h100v-100h-100v100zM0 100h100v-100h-100v100zM400 100h100v-100h-100v100z" />
    <glyph glyph-name="Oslash" unicode="&#xd8;" 
d="M400 600h100v-500h-100v400h-100v100h-200v100h200v100h100v-200zM200 200v-100h200v-100h-200v-100h-100v200h-100v500h100v-400h100zM200 200v300h100v-300h-100z" />
    <glyph glyph-name="Ugrave" unicode="&#xd9;" 
d="M0 700h100v-600h-100v600zM400 700h100v-600h-100v600zM100 100h300v-100h-300v100zM100 1000h100v-100h-100v100zM200 900h100v-100h-100v100z" />
    <glyph glyph-name="Uacute" unicode="&#xda;" 
d="M0 700h100v-600h-100v600zM400 700h100v-600h-100v600zM100 100h300v-100h-300v100zM300 900h100v-100h-100v100zM200 800h100v-100h-100v100z" />
    <glyph glyph-name="Ucircumflex" unicode="&#xdb;" 
d="M200 1000h100v-100h-100v100zM100 900h100v-100h-100v100zM300 900h100v-100h-100v100zM0 700h100v-600h-100v600zM400 700h100v-600h-100v600zM100 100h300v-100h-300v100z" />
    <glyph glyph-name="Udieresis" unicode="&#xdc;" 
d="M100 900h100v-100h-100v100zM300 900h100v-100h-100v100zM0 700h100v-600h-100v600zM400 700h100v-600h-100v600zM100 100h300v-100h-300v100z" />
    <glyph glyph-name="Yacute" unicode="&#xdd;" 
d="M0 700h100v-200h-100v200zM400 700h100v-200h-100v200zM100 500h100v-100h-100v100zM300 500h100v-100h-100v100zM200 400h100v-400h-100v400zM300 900h100v-100h-100v100zM200 800h100v-100h-100v100z" />
    <glyph glyph-name="germandbls" unicode="&#xdf;" 
d="M100 700h200v-100h-200v100zM0 600h100v-600h-100v600zM300 600h100v-200h-100v200zM200 400h100v-100h-100v100zM300 300h100v-200h-100v200zM200 100h100v-100h-100v100z" />
    <glyph glyph-name="agrave" unicode="&#xe0;" horiz-adv-x="500" 
d="M100 500h200v-100h-200v100zM300 400h100v-400h-300v100h200v100h-200v100h200v100zM0 200h100v-100h-100v100zM100 800h100v-100h-100v100zM200 700h100v-100h-100v100z" />
    <glyph glyph-name="aacute" unicode="&#xe1;" horiz-adv-x="500" 
d="M100 500h200v-100h-200v100zM300 400h100v-400h-300v100h200v100h-200v100h200v100zM0 200h100v-100h-100v100zM200 800h100v-100h-100v100zM100 700h100v-100h-100v100z" />
    <glyph glyph-name="acircumflex" unicode="&#xe2;" horiz-adv-x="500" 
d="M100 500h200v-100h-200v100zM300 400h100v-400h-300v100h200v100h-200v100h200v100zM0 200h100v-100h-100v100zM100 800h200v-100h-200v100zM0 700h100v-100h-100v100zM300 700h100v-100h-100v100z" />
    <glyph glyph-name="atilde" unicode="&#xe3;" horiz-adv-x="500" 
d="M100 500h200v-100h-200v100zM300 400h100v-400h-300v100h200v100h-200v100h200v100zM0 200h100v-100h-100v100zM100 800h100v-100h-100v100zM300 800h100v-100h-100v100zM0 700h100v-100h-100v100zM200 700h100v-100h-100v100z" />
    <glyph glyph-name="adieresis" unicode="&#xe4;" horiz-adv-x="500" 
d="M100 500h200v-100h-200v100zM300 400h100v-400h-300v100h200v100h-200v100h200v100zM0 200h100v-100h-100v100zM0 700h100v-100h-100v100zM300 700h100v-100h-100v100z" />
    <glyph glyph-name="aring" unicode="&#xe5;" horiz-adv-x="500" 
d="M300 900v-100h-200v100h200zM0 800h100v-100h-100v100zM300 800h100v-100h-100v100zM100 600v100h200v-100h-200zM100 500h200v-100h-200v100zM300 300v100h100v-400h-300v100h200v100h-200v100h200zM0 200h100v-100h-100v100z" />
    <glyph glyph-name="ae" unicode="&#xe6;" horiz-adv-x="800" 
d="M100 500h200v-100h-200v100zM600 500v-100h-200v100h200zM600 400h100v-200h-300v-100h200v-100h-500v100h200v100h-200v100h200v100h100v-100h200v100zM0 200h100v-100h-100v100z" />
    <glyph glyph-name="ccedilla" unicode="&#xe7;" horiz-adv-x="400" 
d="M300 500v-100h-200v100h200zM0 400h100v-300h-100v300zM200 0h-100v100h200v-200h-100v100zM100 -200v100h100v-100h-100z" />
    <glyph glyph-name="egrave" unicode="&#xe8;" horiz-adv-x="500" 
d="M300 500v-100h-200v100h200zM300 400h100v-200h-300v-100h-100v300h100v-100h200v100zM300 0h-200v100h200v-100zM100 800h100v-100h-100v100zM200 700h100v-100h-100v100z" />
    <glyph glyph-name="eacute" unicode="&#xe9;" horiz-adv-x="500" 
d="M300 500v-100h-200v100h200zM300 400h100v-200h-300v-100h-100v300h100v-100h200v100zM300 0h-200v100h200v-100zM200 800h100v-100h-100v100zM100 700h100v-100h-100v100z" />
    <glyph glyph-name="ecircumflex" unicode="&#xea;" horiz-adv-x="500" 
d="M300 500v-100h-200v100h200zM300 400h100v-200h-300v-100h-100v300h100v-100h200v100zM300 0h-200v100h200v-100zM100 800h200v-100h-200v100zM0 700h100v-100h-100v100zM300 700h100v-100h-100v100z" />
    <glyph glyph-name="edieresis" unicode="&#xeb;" horiz-adv-x="500" 
d="M300 500v-100h-200v100h200zM300 400h100v-200h-300v-100h-100v300h100v-100h200v100zM300 0h-200v100h200v-100zM0 700h100v-100h-100v100zM300 700h100v-100h-100v100z" />
    <glyph glyph-name="igrave" unicode="&#xec;" horiz-adv-x="200" 
d="M0 500h100v-500h-100v500zM-100 800h100v-100h-100v100zM0 700h100v-100h-100v100z" />
    <glyph glyph-name="iacute" unicode="&#xed;" horiz-adv-x="200" 
d="M0 500h100v-500h-100v500zM100 800h100v-100h-100v100zM0 700h100v-100h-100v100z" />
    <glyph glyph-name="icircumflex" unicode="&#xee;" horiz-adv-x="400" 
d="M100 800h100v-100h-100v100zM0 700h100v-100h-100v100zM200 700h100v-100h-100v100zM100 500h100v-500h-100v500z" />
    <glyph glyph-name="idieresis" unicode="&#xef;" horiz-adv-x="200" 
d="M-100 700h100v-100h-100v100zM100 700h100v-100h-100v100zM0 500h100v-500h-100v500z" />
    <glyph glyph-name="ntilde" unicode="&#xf1;" horiz-adv-x="500" 
d="M300 500v-100h-200v-400h-100v500h300zM300 400h100v-400h-100v400zM100 800h100v-100h-100v100zM300 800h100v-100h-100v100zM0 700h100v-100h-100v100zM200 700h100v-100h-100v100z" />
    <glyph glyph-name="ograve" unicode="&#xf2;" horiz-adv-x="500" 
d="M100 500h200v-100h-200v100zM0 400h100v-300h-100v300zM300 400h100v-300h-100v300zM100 100h200v-100h-200v100zM100 800h100v-100h-100v100zM200 700h100v-100h-100v100z" />
    <glyph glyph-name="oacute" unicode="&#xf3;" horiz-adv-x="500" 
d="M100 500h200v-100h-200v100zM0 400h100v-300h-100v300zM300 400h100v-300h-100v300zM100 100h200v-100h-200v100zM200 800h100v-100h-100v100zM100 700h100v-100h-100v100z" />
    <glyph glyph-name="ocircumflex" unicode="&#xf4;" horiz-adv-x="500" 
d="M100 500h200v-100h-200v100zM0 400h100v-300h-100v300zM300 400h100v-300h-100v300zM100 100h200v-100h-200v100zM100 800h200v-100h-200v100zM0 700h100v-100h-100v100zM300 700h100v-100h-100v100z" />
    <glyph glyph-name="otilde" unicode="&#xf5;" horiz-adv-x="500" 
d="M100 500h200v-100h-200v100zM0 400h100v-300h-100v300zM300 400h100v-300h-100v300zM100 100h200v-100h-200v100zM100 800h100v-100h-100v100zM300 800h100v-100h-100v100zM0 700h100v-100h-100v100zM200 700h100v-100h-100v100z" />
    <glyph glyph-name="odieresis" unicode="&#xf6;" horiz-adv-x="500" 
d="M100 500h200v-100h-200v100zM0 400h100v-300h-100v300zM300 400h100v-300h-100v300zM100 100h200v-100h-200v100zM0 700h100v-100h-100v100zM300 700h100v-100h-100v100z" />
    <glyph glyph-name="divide" unicode="&#xf7;" 
d="M200 500h100v-100h-100v100zM0 300h500v-100h-500v100zM200 100h100v-100h-100v100z" />
    <glyph glyph-name="oslash" unicode="&#xf8;" horiz-adv-x="500" 
d="M300 400v-300h100v-100h-200v-100h-100v200h100v300h-100v100h200v100h100v-200h-100zM0 400h100v-300h-100v300zM400 400h100v-300h-100v300z" />
    <glyph glyph-name="ugrave" unicode="&#xf9;" horiz-adv-x="500" 
d="M0 500h100v-400h-100v400zM300 500h100v-500h-300v100h200v400zM100 800h100v-100h-100v100zM200 700h100v-100h-100v100z" />
    <glyph glyph-name="uacute" unicode="&#xfa;" horiz-adv-x="500" 
d="M0 500h100v-400h-100v400zM300 500h100v-500h-300v100h200v400zM200 800h100v-100h-100v100zM100 700h100v-100h-100v100z" />
    <glyph glyph-name="ucircumflex" unicode="&#xfb;" horiz-adv-x="500" 
d="M0 500h100v-400h-100v400zM300 500h100v-500h-300v100h200v400zM100 800h200v-100h-200v100zM0 700h100v-100h-100v100zM300 700h100v-100h-100v100z" />
    <glyph glyph-name="udieresis" unicode="&#xfc;" horiz-adv-x="500" 
d="M0 500h100v-400h-100v400zM300 500h100v-500h-300v100h200v400zM0 700h100v-100h-100v100zM300 700h100v-100h-100v100z" />
    <glyph glyph-name="yacute" unicode="&#xfd;" horiz-adv-x="500" 
d="M0 500h100v-400h-100v400zM300 500h100v-600h-100v100h-200v100h200v400zM100 -200v100h200v-100h-200zM200 800h100v-100h-100v100zM100 700h100v-100h-100v100z" />
    <glyph glyph-name="ydieresis" unicode="&#xff;" horiz-adv-x="500" 
d="M0 500h100v-400h-100v400zM300 500h100v-600h-100v100h-200v100h200v400zM100 -200v100h200v-100h-200zM0 700h100v-100h-100v100zM300 700h100v-100h-100v100z" />
    <glyph glyph-name="dotlessi" unicode="&#x131;" horiz-adv-x="200" 
d="M0 500h100v-500h-100v500z" />
    <glyph glyph-name="OE" unicode="&#x152;" 
d="M800 600h-300v-200h200v-100h-200v-200h300v-100h-700v100h300v500h-300v100h700v-100zM0 600h100v-500h-100v500z" />
    <glyph glyph-name="oe" unicode="&#x153;" horiz-adv-x="800" 
d="M300 500v-100h-200v100h200zM600 500v-100h-200v100h200zM0 400h100v-300h-100v300zM600 400h100v-200h-300v-100h-100v300h100v-100h200v100zM100 0v100h200v-100h-200zM600 0h-200v100h200v-100z" />
    <glyph glyph-name="Scaron" unicode="&#x160;" 
d="M100 900h100v-100h-100v100zM400 900v-100h-100v100h100zM300 700h100v-100h-300v100h100v100h100v-100zM0 400v200h100v-200h-100zM500 500h-100v100h100v-100zM400 300h-300v100h300v-100zM500 100h-100v200h100v-200zM0 200h100v-100h-100v100zM100 0v100h300v-100
h-300z" />
    <glyph glyph-name="scaron" unicode="&#x161;" horiz-adv-x="500" 
d="M0 800h100v-100h-100v100zM300 800h100v-100h-100v100zM100 700h200v-100h-200v100zM100 500h200v-100h-200v100zM0 400h100v-100h-100v100zM100 300h200v-100h-200v100zM300 200h100v-100h-100v100zM100 100h200v-100h-200v100z" />
    <glyph glyph-name="Ydieresis" unicode="&#x178;" 
d="M100 800h100v-100h-100v100zM300 800h100v-100h-100v100zM0 700h100v-200h-100v200zM400 700h100v-200h-100v200zM100 500h100v-100h-100v100zM300 500h100v-100h-100v100zM200 400h100v-400h-100v400z" />
    <glyph glyph-name="zcaron" unicode="&#x17e;" horiz-adv-x="400" 
d="M0 800h100v-100h-100v100zM200 800h100v-100h-100v100zM100 600v100h100v-100h-100zM0 400v100h300v-200h-100v100h-200zM100 200v100h100v-100h-100zM0 200h100v-100h200v-100h-300v200z" />
    <glyph glyph-name="circumflex" unicode="&#x2c6;" 
d="M100 800h200v-100h-200v100zM0 700h100v-100h-100v100zM300 700h100v-100h-100v100z" />
    <glyph glyph-name="tilde" unicode="&#x2dc;" 
d="M100 800h100v-100h-100v100zM300 800h100v-100h-100v100zM0 700h100v-100h-100v100zM200 700h100v-100h-100v100z" />
    <glyph glyph-name="gravecomb" unicode="&#x300;" horiz-adv-x="0" 
d="M-600 800h100v-100h-100v100zM-500 700h100v-100h-100v100z" />
    <glyph glyph-name="acutecomb" unicode="&#x301;" horiz-adv-x="0" 
d="M-500 800h100v-100h-100v100zM-600 700h100v-100h-100v100z" />
    <glyph glyph-name="uni0302" unicode="&#x302;" horiz-adv-x="0" 
d="M-500 800h200v-100h-200v100zM-600 700h100v-100h-100v100zM-300 700h100v-100h-100v100z" />
    <glyph glyph-name="tildecomb" unicode="&#x303;" horiz-adv-x="0" 
d="M-500 800h100v-100h-100v100zM-300 800h100v-100h-100v100zM-600 700h100v-100h-100v100zM-400 700h100v-100h-100v100z" />
    <glyph glyph-name="uni0308" unicode="&#x308;" horiz-adv-x="0" 
d="M-600 700h100v-100h-100v100zM-300 700h100v-100h-100v100z" />
    <glyph glyph-name="uni0327" unicode="&#x327;" horiz-adv-x="0" 
d="M-500 0h100v-200h-200v100h100v100z" />
    <glyph glyph-name="endash" unicode="&#x2013;" horiz-adv-x="500" 
d="M0 300h400v-100h-400v100z" />
    <glyph glyph-name="emdash" unicode="&#x2014;" horiz-adv-x="700" 
d="M0 300h600v-100h-600v100z" />
    <glyph glyph-name="quoteleft" unicode="&#x2018;" horiz-adv-x="300" 
d="M0 700h100v-100h-100v100zM100 600h100v-100h-100v100z" />
    <glyph glyph-name="quoteright" unicode="&#x2019;" horiz-adv-x="300" 
d="M100 700h100v-100h-100v100zM0 600h100v-100h-100v100z" />
    <glyph glyph-name="quotesinglbase" unicode="&#x201a;" 
d="M0 100h100v-200h-100v200z" />
    <glyph glyph-name="quotedblleft" unicode="&#x201c;" 
d="M300 700h100v-100h-100v100zM400 600h100v-100h-100v100zM0 700h100v-100h-100v100zM100 600h100v-100h-100v100z" />
    <glyph glyph-name="quotedblright" unicode="&#x201d;" horiz-adv-x="300" 
d="M100 700h100v-100h-100v100zM0 500v100h100v-100h-100z" />
    <glyph glyph-name="quotedblbase" unicode="&#x201e;" 
d="M0 100h100v-200h-100v200z" />
    <glyph glyph-name="bullet" unicode="&#x2022;" horiz-adv-x="400" 
d="M300 300v-100h-100v-100h-100v100h-100v100h100v100h100v-100h100z" />
    <glyph glyph-name="ellipsis" unicode="&#x2026;" horiz-adv-x="200" 
d="M0 100h100v-100h-100v100z" />
    <glyph glyph-name="perthousand" unicode="&#x2030;" horiz-adv-x="1000" 
d="M100 700h100v-100h-100v100zM600 700h100v-100h-100v100zM0 600h100v-100h-100v100zM200 600h100v-100h-100v100zM500 600h100v-100h-100v100zM100 500h100v-100h-100v100zM400 500h100v-100h-100v100zM300 400h100v-100h-100v100zM200 300h100v-100h-100v100zM500 300
h100v-100h-100v100zM700 300h100v-100h-100v100zM100 200h100v-100h-100v100zM400 200h100v-100h-100v100zM600 200h100v-100h-100v100zM800 200h100v-100h-100v100zM0 100h100v-100h-100v100zM500 100h100v-100h-100v100zM700 100h100v-100h-100v100z" />
    <glyph glyph-name="guilsinglleft" unicode="&#x2039;" horiz-adv-x="400" 
d="M200 500h100v-100h-100v100zM100 400h100v-100h-100v100zM0 300h100v-100h-100v100zM100 200h100v-100h-100v100zM200 100h100v-100h-100v100z" />
    <glyph glyph-name="guilsinglright" unicode="&#x203a;" horiz-adv-x="400" 
d="M100 500v-100h-100v100h100zM200 400v-100h-100v100h100zM300 300v-100h-100v100h100zM200 200v-100h-100v100h100zM100 100v-100h-100v100h100z" />
    <glyph glyph-name="Euro" unicode="&#x20ac;" horiz-adv-x="700" 
d="M300 700h200v-100h-200v100zM200 500v100h100v-100h-100zM600 500h-100v100h100v-100zM100 400v100h100v-100h300v-100h-300v-100h-100v100h-100v100h100zM300 100h-100v100h100v-100zM600 200v-100h-100v100h100zM500 0h-200v100h200v-100z" />
    <glyph glyph-name="trademark" unicode="&#x2122;" horiz-adv-x="1200" 
d="M0 700h500v-100h-200v-600h-100v600h-200v100zM700 600h100v-100h-100v-500h-100v700h100v-100zM1000 700h100v-700h-100v500h-100v100h100v100zM800 400v100h100v-100h-100z" />
    <glyph glyph-name="minus" unicode="&#x2212;" 
d="M0 300h500v-100h-500v100z" />
    <glyph glyph-name="notequal" unicode="&#x2260;" 
d="M500 300h-200v-100h200v-100h-300v-100h-100v100h-100v100h200v100h-200v100h300v100h100v-100h100v-100z" />
    </font>
</defs>
</svg>
